<?xml version="1.0" standalone="no"?>
<!DOCTYPE svg PUBLIC "-//W3C//DTD SVG 20010904//EN"
 "http://www.w3.org/TR/2001/REC-SVG-20010904/DTD/svg10.dtd">
<svg version="1.0" xmlns="http://www.w3.org/2000/svg"
 width="256.000000pt" height="256.000000pt" viewBox="0 0 256.000000 256.000000"
 preserveAspectRatio="xMidYMid meet">

<g transform="translate(0.000000,256.000000) scale(0.100000,-0.100000)"
fill="#000000" stroke="none">
<path d="M391 2543 c-26 -9 -65 -36 -92 -63 -84 -84 -79 -12 -79 -1200 0
-1188 -5 -1116 79 -1200 85 -85 19 -80 1081 -80 715 0 939 3 948 12 9 9 12
267 12 1099 0 598 -3 1094 -6 1103 -3 9 -12 16 -20 16 -23 0 -18 73 6 88 18
11 20 23 20 115 0 67 -4 107 -12 115 -9 9 -233 12 -952 11 -828 0 -946 -2
-985 -16z m629 -235 l0 -172 -53 52 c-29 29 -61 52 -72 52 -10 0 -40 -24 -66
-52 l-48 -53 -1 173 0 172 120 0 120 0 0 -172z m815 -470 c51 -40 55 -66 55
-333 0 -267 -4 -293 -55 -333 -28 -22 -31 -22 -502 -22 l-475 0 -34 34 -34 34
0 287 0 287 34 34 34 34 475 0 c471 0 474 0 502 -22z m-1115 -1498 c11 -20 21
-20 775 -20 l765 0 0 -60 0 -60 -900 0 c-887 0 -900 0 -920 20 -11 11 -20 29
-20 40 0 43 34 60 120 60 69 0 82 3 92 20 9 13 24 20 45 20 22 0 36 -6 43 -20z"/>
<path d="M954 1626 c-3 -8 -4 -23 -2 -33 3 -17 26 -18 378 -21 339 -2 376 -1
387 14 9 12 9 22 2 35 -9 18 -29 19 -385 19 -317 0 -375 -2 -380 -14z"/>
<path d="M954 1426 c-3 -8 -4 -23 -2 -33 3 -17 26 -18 378 -21 339 -2 376 -1
387 14 9 12 9 22 2 35 -9 18 -29 19 -385 19 -317 0 -375 -2 -380 -14z"/>
</g>
</svg>
